<?xml version="1.0" standalone="no"?>
<!DOCTYPE svg PUBLIC "-//W3C//DTD SVG 20010904//EN"
 "http://www.w3.org/TR/2001/REC-SVG-20010904/DTD/svg10.dtd">
<svg version="1.0" xmlns="http://www.w3.org/2000/svg"
 width="1472.000000pt" height="1472.000000pt" viewBox="0 0 1472.000000 1472.000000"
 preserveAspectRatio="xMidYMid meet">
<metadata>
Created by potrace 1.14, written by Peter Selinger 2001-2017
</metadata>
<g transform="translate(0.000000,1472.000000) scale(0.100000,-0.100000)"
fill="#000000" stroke="none">
<path d="M95 10866 c-37 -17 -70 -52 -84 -89 -8 -20 -11 -292 -11 -867 l0
-838 23 -33 c36 -53 77 -76 136 -75 28 1 51 -2 51 -6 0 -4 13 -3 30 2 17 5 30
5 30 0 0 -5 13 -5 30 0 17 5 30 5 30 0 0 -5 13 -5 30 0 17 5 30 5 30 0 0 -5
13 -5 30 0 17 5 30 5 30 0 0 -5 13 -5 30 0 16 5 30 6 30 2 0 -8 74 -7 87 1 5
3 15 2 23 -3 8 -5 21 -5 30 0 9 5 22 5 30 0 8 -5 21 -5 30 0 9 5 22 5 30 0 8
-5 21 -5 30 0 9 5 22 5 30 0 8 -5 21 -5 30 0 9 5 22 5 30 0 8 -5 21 -5 30 0 9
5 22 5 30 0 8 -5 21 -5 30 0 9 5 22 5 30 0 8 -5 21 -5 30 0 9 5 22 5 30 0 8
-5 21 -5 30 0 9 5 22 5 30 0 8 -5 21 -5 30 0 9 5 22 5 30 0 8 -5 21 -5 30 0 9
5 22 5 29 1 7 -5 29 -5 49 -1 21 3 49 3 65 -1 15 -4 27 -4 27 1 0 4 15 5 33 1
17 -4 47 -4 65 0 17 3 32 3 32 -2 0 -4 14 -4 30 1 17 5 30 5 30 0 0 -5 13 -5
30 0 17 5 30 5 30 0 0 -5 13 -5 30 0 16 5 30 6 30 2 0 -4 16 -7 35 -7 19 0 35
3 35 6 0 3 10 4 23 2 80 -15 179 105 156 190 -4 15 -3 27 1 27 5 0 5 14 0 30
-5 17 -5 30 0 30 5 0 5 13 0 30 -5 17 -5 30 0 30 5 0 5 13 0 30 -5 17 -5 30 0
30 5 0 5 13 0 30 -5 17 -5 30 0 30 5 0 5 13 0 30 -5 17 -5 30 0 30 5 0 5 13 0
30 -5 17 -5 30 0 30 5 0 5 13 0 30 -5 17 -5 30 0 30 5 0 5 13 0 30 -5 17 -5
30 0 30 5 0 5 13 0 30 -5 17 -5 30 0 30 5 0 5 13 0 30 -5 17 -5 30 0 30 5 0 5
13 0 30 -5 17 -5 30 0 30 5 0 5 13 0 30 -5 17 -5 30 0 30 5 0 5 13 0 30 -5 17
-5 30 0 30 5 0 5 13 0 30 -5 17 -5 30 0 30 5 0 5 13 0 30 -5 17 -5 32 0 35 5
3 6 15 0 29 -4 12 -4 29 0 36 5 8 6 18 3 23 -7 12 -7 106 0 113 3 3 1 19 -3
35 -5 16 -5 31 0 34 4 3 4 20 0 39 -4 19 -4 40 0 46 4 7 4 26 0 41 -5 16 -5
31 0 34 4 3 4 20 0 39 -4 19 -4 40 0 46 4 7 4 26 0 41 -5 17 -5 31 1 35 5 3 7
9 5 13 -3 4 -7 27 -10 51 -6 48 -27 82 -70 114 -27 21 -36 21 -874 23 -692 2
-853 0 -877 -11z"/>
<path d="M2655 10866 c-16 -7 -40 -24 -52 -37 -27 -30 -55 -97 -43 -104 5 -3
5 -18 0 -33 -4 -16 -4 -35 1 -43 4 -8 4 -21 -1 -29 -4 -7 -4 -24 0 -36 6 -14
5 -26 0 -29 -6 -3 -6 -15 0 -30 6 -15 6 -27 0 -30 -6 -3 -6 -15 0 -30 6 -15 6
-27 0 -30 -6 -3 -6 -15 0 -30 6 -15 6 -27 0 -30 -6 -3 -6 -15 0 -30 6 -15 6
-27 0 -30 -6 -3 -6 -15 0 -30 6 -15 6 -27 0 -30 -6 -3 -6 -15 0 -30 6 -15 6
-27 0 -30 -6 -3 -6 -15 0 -30 6 -15 6 -27 0 -30 -6 -3 -6 -15 0 -30 6 -15 6
-27 0 -30 -6 -3 -6 -15 0 -30 6 -15 6 -27 0 -30 -6 -3 -6 -15 0 -30 6 -15 6
-27 0 -30 -6 -3 -6 -15 0 -30 6 -15 6 -27 0 -30 -6 -3 -6 -15 0 -30 6 -15 6
-27 0 -30 -6 -3 -6 -15 0 -30 6 -15 6 -27 0 -30 -6 -3 -6 -15 0 -30 6 -15 6
-27 0 -30 -6 -3 -6 -15 0 -30 6 -15 6 -27 0 -30 -6 -3 -6 -15 0 -30 6 -15 6
-27 0 -30 -6 -3 -6 -15 0 -30 6 -15 6 -27 0 -30 -6 -3 -6 -15 0 -30 6 -15 6
-27 0 -30 -6 -3 -6 -15 0 -30 6 -15 6 -27 0 -30 -6 -3 -6 -15 0 -30 6 -15 6
-27 0 -30 -6 -3 -6 -15 0 -30 6 -15 6 -27 0 -30 -6 -3 -6 -15 0 -30 6 -15 6
-27 0 -30 -6 -3 -6 -15 0 -30 6 -15 6 -27 -1 -30 -5 -4 -7 -10 -4 -15 3 -4 7
-29 10 -54 6 -60 18 -80 65 -115 31 -22 49 -27 89 -27 28 1 51 -2 51 -6 0 -4
14 -3 30 2 17 5 30 5 30 0 0 -5 13 -5 30 0 17 5 30 5 30 0 0 -5 13 -5 30 0 17
5 30 5 30 0 0 -5 13 -5 30 0 17 5 30 5 30 0 0 -5 13 -5 30 0 17 5 30 6 30 2 0
-8 74 -7 87 1 5 3 15 2 23 -3 8 -5 21 -5 30 0 9 5 22 5 30 0 8 -5 21 -5 30 0
9 5 22 5 30 0 8 -5 21 -5 30 0 9 5 22 5 30 0 8 -5 21 -5 30 0 9 5 22 5 30 0 8
-5 21 -5 30 0 9 5 22 5 30 0 8 -5 21 -5 30 0 9 5 22 5 30 0 8 -5 21 -5 30 0 9
5 22 5 30 0 8 -5 21 -5 30 0 9 5 22 5 30 0 8 -5 21 -5 30 0 9 5 22 5 30 0 8
-5 21 -5 30 0 9 5 22 5 29 1 7 -5 29 -5 49 -1 21 3 49 3 65 -1 15 -4 27 -4 27
1 0 4 15 5 33 1 17 -4 47 -4 65 0 17 3 32 3 32 -2 0 -4 14 -4 30 1 17 5 30 5
30 0 0 -5 13 -5 30 0 17 5 30 5 30 0 0 -5 13 -5 30 0 17 5 30 6 30 2 0 -4 16
-7 35 -7 19 0 35 2 35 5 0 3 18 5 40 5 63 1 130 62 135 124 1 17 5 34 8 37 3
3 2 17 -3 30 -6 14 -6 26 0 29 6 3 6 15 0 30 -6 15 -6 27 0 30 6 3 6 15 0 30
-6 15 -6 27 0 30 6 3 6 15 0 30 -6 15 -6 27 0 30 6 3 6 15 0 30 -6 15 -6 27 0
30 6 3 6 15 0 30 -6 15 -6 27 0 30 6 3 6 15 0 30 -6 15 -6 27 0 30 6 3 6 15 0
30 -6 15 -6 27 0 30 6 3 6 15 0 30 -6 15 -6 27 0 30 6 3 6 15 0 30 -6 15 -6
27 0 30 6 3 6 15 0 30 -6 15 -6 27 0 30 6 3 6 15 0 30 -6 15 -6 27 0 30 6 3 6
15 0 30 -6 15 -6 27 0 30 6 3 6 15 0 30 -6 15 -6 27 0 30 6 3 6 15 0 30 -6 15
-6 27 0 30 5 3 6 15 1 28 -5 12 -5 32 0 44 5 13 4 25 -1 28 -6 3 -6 15 0 29 5
13 6 26 3 30 -8 8 -9 96 -2 96 4 0 3 16 -1 35 -4 19 -5 35 -1 35 3 0 6 18 6
40 0 22 -3 40 -7 40 -4 0 -3 13 2 30 5 17 5 32 0 35 -5 3 -5 16 -1 28 5 12 5
34 0 49 -4 16 -4 28 1 28 4 0 4 16 0 35 -4 19 -4 35 1 35 4 0 7 6 4 13 -2 6
-6 32 -9 57 -6 49 -27 82 -70 114 -27 21 -36 21 -874 23 -692 2 -853 0 -877
-11z"/>
<path d="M5355 10869 c-98 -28 -183 -111 -216 -207 -11 -35 -19 -72 -16 -83 3
-10 2 -19 -1 -19 -4 0 -7 -29 -7 -65 0 -36 3 -65 7 -65 4 0 3 -13 -2 -30 -5
-17 -5 -30 0 -30 5 0 5 -13 0 -30 -5 -17 -5 -30 0 -30 5 0 5 -13 0 -30 -5 -17
-5 -30 0 -30 5 0 5 -13 0 -30 -5 -17 -5 -30 0 -30 5 0 5 -13 0 -30 -5 -17 -5
-30 0 -30 5 0 5 -13 0 -30 -5 -17 -5 -30 0 -30 5 0 5 -13 0 -30 -5 -17 -5 -30
0 -30 5 0 5 -13 0 -30 -5 -17 -5 -30 0 -30 5 0 5 -13 0 -30 -5 -17 -5 -30 0
-30 5 0 5 -13 0 -30 -5 -17 -5 -30 0 -30 5 0 5 -13 0 -30 -5 -17 -5 -30 0 -30
5 0 5 -13 0 -30 -5 -17 -5 -30 0 -30 5 0 5 -13 0 -30 -5 -17 -5 -30 0 -30 5 0
5 -13 0 -30 -5 -17 -5 -30 0 -30 5 0 5 -13 0 -29 -4 -15 -4 -34 0 -41 5 -7 4
-24 0 -36 -6 -14 -5 -26 0 -29 5 -3 5 -18 0 -35 -5 -17 -6 -30 -2 -30 4 0 7
-16 7 -35 0 -19 -4 -35 -8 -35 -5 0 -6 -4 -3 -9 3 -5 8 -31 10 -57 7 -84 33
-139 89 -196 53 -54 117 -86 187 -93 30 -4 61 -8 68 -10 6 -3 12 0 12 4 0 5
15 5 34 1 19 -4 39 -4 46 0 7 4 27 4 46 0 19 -4 36 -4 39 0 3 5 18 5 34 0 16
-4 32 -6 35 -3 7 7 101 7 113 0 5 -3 15 -2 23 3 7 4 24 4 36 0 14 -6 26 -5 29
0 3 5 18 5 35 0 17 -5 30 -5 30 0 0 5 13 5 30 0 17 -5 30 -5 30 0 0 5 13 5 30
0 17 -5 30 -5 30 0 0 5 13 5 30 0 17 -5 30 -5 30 0 0 5 13 5 30 0 17 -5 30 -5
30 0 0 5 13 5 30 0 17 -5 30 -5 30 0 0 5 13 5 30 0 17 -5 30 -5 30 0 0 5 13 5
30 0 17 -5 30 -5 30 0 0 5 13 5 30 0 17 -5 30 -5 30 0 0 5 13 5 30 0 17 -5 30
-5 30 0 0 5 13 5 30 0 17 -5 30 -5 30 0 0 5 13 5 30 0 17 -5 32 -5 35 0 3 5
15 6 29 0 12 -4 28 -5 35 0 7 4 21 5 32 3 35 -9 142 36 190 80 49 44 99 127
99 163 0 11 3 23 6 27 4 3 6 37 5 74 -2 98 -1 166 5 174 2 4 1 10 -3 12 -5 3
-6 45 -3 94 3 50 3 107 0 129 -3 21 -3 53 0 69 3 17 3 49 -1 72 -3 23 -3 47 1
52 3 6 3 36 0 66 -3 30 -3 60 0 65 4 6 3 33 0 60 -4 28 -2 50 2 50 5 0 7 4 4
8 -3 5 -5 33 -6 63 -1 87 -1 191 1 234 3 98 -9 191 -32 240 -29 61 -92 124
-154 155 l-50 25 -710 2 c-390 1 -723 -3 -740 -8z m151 -148 c3 5 10 7 15 3
13 -7 117 -9 125 -2 3 4 18 2 34 -2 16 -4 31 -6 34 -3 3 3 28 5 56 4 27 -1 57
-1 65 -1 8 0 22 0 30 0 8 0 22 0 30 0 8 0 22 0 30 0 8 0 21 0 28 -1 6 0 21 0
32 1 11 1 46 0 77 -1 32 -2 60 0 64 3 3 4 18 2 34 -2 16 -4 31 -6 34 -3 7 7
101 7 113 0 5 -3 15 -2 23 3 7 4 24 4 36 0 14 -6 26 -5 29 0 3 5 18 5 35 0 18
-5 32 -5 36 1 3 5 10 7 15 3 13 -7 117 -9 125 -2 3 4 18 3 33 -2 16 -4 34 -4
41 0 7 5 18 7 24 5 6 -2 26 -6 44 -9 37 -5 96 -46 113 -78 10 -19 21 -96 20
-135 -1 -24 -1 -43 0 -93 1 -28 -1 -53 -4 -56 -3 -3 -1 -19 3 -35 5 -16 5 -29
1 -29 -5 0 -5 -18 -1 -39 4 -22 4 -45 0 -52 -4 -6 -4 -25 0 -40 5 -16 6 -29 2
-29 -8 0 -7 -119 1 -127 3 -3 2 -15 -3 -27 -4 -13 -4 -29 0 -36 5 -8 5 -21 0
-30 -5 -9 -5 -22 0 -30 5 -8 5 -21 0 -31 -5 -9 -7 -19 -3 -22 7 -8 6 -164 -2
-177 -3 -6 -3 -10 2 -10 9 0 9 -78 0 -86 -3 -3 -1 -19 3 -35 5 -16 6 -29 2
-29 -8 0 -7 -119 1 -127 3 -3 2 -15 -3 -27 -4 -13 -5 -28 0 -36 11 -18 -8 -79
-37 -118 -33 -44 -79 -61 -171 -62 -139 -1 -166 -2 -212 -1 -25 1 -53 1 -62 0
-29 0 -286 0 -377 1 -46 0 -87 3 -92 6 -5 3 -9 0 -9 -6 0 -6 -4 -8 -10 -5 -5
3 -67 5 -137 5 -71 -1 -132 -1 -138 -1 -101 -1 -221 4 -244 11 -16 4 -41 18
-56 31 -48 42 -54 67 -56 264 0 6 0 19 1 30 1 18 2 214 1 240 0 27 -1 72 0 85
0 8 0 51 -1 95 0 44 -1 136 -1 205 0 69 0 132 0 140 0 8 0 35 0 60 1 25 1 72
1 105 0 33 0 92 0 131 0 41 6 87 15 107 27 64 117 113 177 96 16 -4 30 -3 34
2z"/>
<path d="M7925 10871 c-71 -18 -185 -96 -185 -128 0 -7 -4 -13 -9 -13 -11 0
-40 -77 -47 -126 -7 -43 -6 -39 -5 -109 4 -147 1 -297 -5 -307 -3 -4 -1 -8 3
-8 5 0 6 -25 3 -56 -3 -30 -3 -57 0 -59 3 -2 3 -31 0 -64 -3 -34 -3 -61 0 -61
4 0 4 -22 0 -50 -3 -27 -4 -54 0 -60 3 -5 3 -35 0 -66 -3 -30 -4 -57 -1 -59 3
-2 4 -43 1 -92 -3 -50 -2 -108 1 -131 3 -23 3 -42 0 -42 -6 0 -5 -67 3 -181
11 -162 134 -285 292 -294 35 -2 68 -6 72 -9 4 -2 14 -1 22 4 8 5 21 5 30 0 9
-5 22 -5 30 0 8 5 21 5 30 0 9 -5 22 -5 30 0 8 5 21 5 30 0 9 -5 22 -5 30 0 8
5 21 5 30 0 9 -5 22 -5 30 0 8 5 21 5 30 0 9 -5 22 -5 29 -1 7 5 27 5 45 2 17
-4 46 -4 64 0 17 3 32 3 32 -2 0 -4 14 -4 30 1 17 5 30 5 30 0 0 -5 13 -5 30
0 17 5 30 5 30 0 0 -5 13 -5 30 0 17 5 30 5 30 0 0 -5 13 -5 30 0 17 5 30 5
30 0 0 -5 13 -5 30 0 17 5 30 6 30 2 0 -4 43 -7 95 -7 52 0 95 3 95 6 0 4 15
3 34 -1 19 -4 39 -4 46 0 7 4 27 4 46 0 19 -4 36 -4 39 0 3 5 18 5 34 0 16 -4
32 -6 34 -4 3 3 31 7 63 9 74 5 81 7 125 29 108 52 185 179 180 294 -1 6 -1
19 -1 27 0 8 0 22 0 30 0 8 0 22 0 30 0 8 0 22 0 30 0 8 0 22 0 30 0 8 0 22 0
30 0 8 0 22 0 30 0 8 0 23 0 33 0 9 0 33 1 52 0 19 1 65 2 103 1 37 -1 67 -5
67 -4 0 -3 14 2 30 5 17 5 30 0 30 -5 0 -5 13 0 30 5 17 5 30 0 30 -5 0 -5 13
0 30 5 17 5 30 0 30 -5 0 -5 13 0 30 5 17 5 30 0 30 -4 0 -5 15 -1 33 4 17 4
47 0 65 -3 17 -3 32 2 32 4 0 4 13 -1 29 -4 15 -4 34 0 42 5 7 5 20 0 29 -5 9
-5 22 0 30 5 8 5 21 0 30 -5 9 -5 22 0 30 5 8 5 21 0 30 -5 9 -5 22 0 30 5 8
5 21 0 30 -5 9 -5 22 0 30 5 8 5 21 0 30 -5 9 -5 22 0 30 5 8 6 18 4 22 -3 4
-7 37 -9 72 -6 113 -75 214 -181 267 l-49 24 -705 2 c-388 1 -718 -2 -735 -6z
m177 -150 c16 4 30 3 33 -1 3 -5 16 -5 29 0 12 4 29 4 36 0 8 -5 21 -5 30 0 9
5 22 5 29 1 7 -5 29 -5 49 -1 20 3 48 3 62 0 14 -4 37 -3 52 1 15 4 30 4 33
-1 3 -5 15 -6 29 0 12 4 29 4 36 0 8 -5 21 -5 30 0 9 5 22 5 29 1 7 -5 29 -5
49 -1 20 3 48 3 62 0 14 -4 37 -3 52 1 15 4 30 4 33 -1 3 -5 15 -6 29 0 12 4
29 4 36 0 8 -5 21 -5 31 0 9 5 19 7 22 4 8 -8 106 -9 113 -1 3 3 18 1 34 -3
16 -4 31 -6 34 -3 3 3 28 5 56 4 54 -1 73 -2 93 0 32 2 118 -11 136 -20 34
-19 70 -74 78 -121 4 -25 6 -49 5 -54 -3 -7 -3 -148 -1 -266 0 -8 0 -35 0 -60
-1 -25 -1 -70 -1 -100 1 -30 1 -111 1 -180 0 -69 0 -132 0 -140 0 -8 0 -24 -1
-35 -1 -18 -2 -214 -1 -240 0 -24 1 -71 0 -87 0 -10 0 -46 1 -81 2 -80 -6
-114 -37 -154 -42 -57 -66 -63 -243 -62 -145 0 -139 0 -253 -1 -48 0 -92 2
-97 5 -6 3 -10 1 -10 -5 0 -6 -4 -8 -10 -5 -8 5 -118 6 -320 4 -25 0 -65 0
-90 0 -25 1 -53 1 -62 0 -10 0 -78 0 -151 1 -73 1 -137 0 -143 -1 -42 -12
-141 38 -165 83 -10 18 -22 99 -20 136 1 19 1 42 1 125 -1 42 2 82 5 87 3 6 3
10 -2 10 -9 0 -9 78 0 86 3 3 1 19 -3 35 -5 16 -6 29 -2 29 8 0 7 119 -1 127
-3 3 -2 15 3 27 4 13 4 29 0 36 -5 8 -5 21 0 30 5 9 5 22 0 30 -5 8 -5 21 0
31 5 9 7 19 3 22 -7 8 -8 106 0 113 3 3 1 19 -3 35 -5 16 -6 29 -2 29 8 0 6
119 -2 127 -2 3 -1 15 4 27 4 13 4 29 0 36 -5 8 -4 22 1 31 6 11 5 20 -1 24
-5 3 -6 15 0 29 4 12 5 28 1 35 -14 22 9 124 35 158 30 39 50 51 101 59 21 3
39 7 41 9 2 2 16 0 30 -4 15 -4 39 -4 54 0z"/>
<path d="M10499 10876 c-3 -3 -14 -7 -25 -9 -38 -6 -98 -42 -139 -82 -57 -58
-87 -124 -88 -202 -1 -35 -4 -63 -7 -63 -3 0 -5 -34 -5 -75 0 -41 3 -75 7 -75
4 0 3 -13 -2 -30 -5 -17 -5 -32 0 -35 5 -3 5 -16 1 -28 -5 -12 -5 -34 0 -49 4
-16 5 -28 1 -28 -4 0 -7 -34 -7 -75 0 -41 3 -75 7 -75 4 0 3 -13 -2 -30 -5
-17 -5 -32 0 -35 5 -3 5 -16 1 -28 -5 -12 -5 -34 0 -49 4 -16 5 -28 1 -28 -4
0 -7 -34 -7 -75 0 -41 3 -75 7 -75 4 0 3 -13 -2 -30 -5 -17 -5 -32 0 -35 5 -3
5 -16 1 -28 -5 -12 -5 -34 0 -49 4 -16 5 -28 1 -28 -4 0 -7 -34 -7 -75 0 -41
3 -75 7 -75 4 0 3 -13 -2 -30 -5 -17 -5 -32 0 -35 6 -3 5 -16 0 -29 -5 -13 -6
-26 -3 -30 3 -3 7 -26 9 -51 4 -60 39 -129 92 -182 57 -56 112 -82 196 -89 26
-2 52 -7 57 -10 5 -3 9 -1 9 5 0 6 11 6 30 1 17 -5 30 -5 30 0 0 5 13 5 30 0
17 -5 30 -5 30 0 0 5 13 5 30 0 17 -5 32 -5 35 0 3 5 12 7 20 4 21 -8 115 -10
115 -3 0 4 15 3 34 -1 19 -4 39 -4 46 0 7 4 27 4 46 0 19 -4 36 -4 39 0 3 5
18 5 34 0 15 -4 34 -4 41 0 6 4 27 4 46 0 19 -4 34 -4 34 0 0 4 15 4 34 0 19
-4 39 -4 46 0 7 4 27 4 46 0 19 -4 36 -4 39 0 3 5 18 5 34 0 16 -4 32 -6 35
-3 3 3 28 5 56 4 27 -1 57 -1 65 -1 8 0 22 0 30 0 8 0 22 0 30 0 8 0 22 0 30
0 8 0 22 0 30 0 8 0 22 0 30 0 8 0 22 0 30 0 8 0 22 0 30 0 8 0 21 0 28 -1 52
-2 177 34 177 52 0 5 6 9 13 9 20 0 83 76 108 129 12 26 22 71 25 110 2 36 4
67 4 69 4 10 2 204 -3 208 -3 3 -2 18 2 32 5 15 5 36 1 47 -4 11 -5 24 -2 29
7 12 6 205 -1 212 -3 3 -2 18 2 32 5 15 5 36 1 47 -4 11 -5 24 -2 29 4 8 6
196 2 214 -2 4 -1 11 0 17 4 24 3 112 -3 121 -3 6 -2 16 3 24 4 7 4 24 0 36
-6 14 -5 26 0 29 6 3 6 15 0 30 -6 15 -6 27 0 30 6 3 6 15 0 30 -6 15 -6 27 1
30 5 4 7 11 4 16 -4 5 -7 26 -9 46 -9 113 -76 211 -181 263 l-50 25 -710 3
c-391 1 -713 0 -716 -2z m151 -156 c9 5 22 5 30 0 8 -5 21 -5 30 0 9 5 22 5
30 0 7 -4 23 -4 36 0 12 5 24 7 27 4 7 -7 116 -9 123 -2 3 4 18 2 34 -2 16 -4
31 -6 34 -3 7 7 101 7 113 0 5 -3 15 -2 23 3 7 4 24 4 36 0 14 -6 26 -5 29 0
3 5 18 5 35 0 18 -5 32 -5 36 1 3 5 10 7 15 3 13 -7 117 -9 125 -2 3 4 18 2
34 -2 16 -4 31 -6 34 -2 7 7 106 6 113 -1 2 -3 18 -1 34 3 16 5 31 5 34 0 3
-5 15 -6 29 0 12 4 29 4 36 0 8 -5 21 -5 31 0 9 5 19 7 21 4 3 -3 33 -6 67 -8
103 -5 153 -57 157 -162 2 -36 5 -68 7 -71 3 -2 1 -18 -3 -34 -5 -16 -5 -31 0
-34 5 -3 5 -16 0 -30 -6 -15 -6 -27 0 -30 6 -3 6 -15 0 -30 -5 -13 -6 -26 -2
-29 5 -3 5 -30 2 -61 -3 -31 -3 -58 2 -61 4 -3 3 -15 -2 -28 -5 -13 -6 -27 -2
-30 3 -4 5 -32 3 -64 -1 -31 -2 -64 -2 -72 2 -48 0 -103 -4 -110 -3 -5 -1 -11
4 -15 7 -3 7 -15 1 -29 -5 -13 -6 -27 -2 -30 3 -4 5 -32 3 -64 -1 -31 -2 -64
-2 -72 2 -48 0 -103 -4 -110 -3 -5 -1 -11 4 -15 7 -3 7 -15 1 -29 -5 -13 -6
-27 -3 -30 4 -4 6 -23 5 -44 -2 -57 -2 -105 -1 -122 2 -24 -10 -90 -21 -110
-32 -59 -127 -90 -242 -80 -32 3 -58 3 -58 0 0 -3 -30 -3 -67 0 -38 3 -102 3
-143 0 -41 -3 -106 -3 -145 0 -38 3 -110 3 -160 0 -49 -3 -121 -3 -160 0 -38
3 -92 3 -120 0 -27 -3 -76 -3 -107 0 -32 3 -58 3 -58 -1 0 -4 -8 -5 -17 -3
-10 2 -60 5 -111 7 -73 3 -98 8 -119 23 -50 38 -66 70 -69 135 -1 33 -5 63 -8
66 -2 3 -1 15 4 28 5 13 6 26 2 29 -3 4 -5 32 -3 64 1 31 2 64 2 72 -2 48 0
103 4 110 3 5 1 11 -4 15 -7 3 -7 15 -1 29 5 13 6 27 2 30 -3 4 -5 32 -3 64 1
31 2 64 2 72 -2 48 0 103 4 110 3 5 1 11 -4 15 -7 3 -7 15 -1 29 5 13 6 27 2
30 -3 4 -5 32 -3 64 1 31 2 64 2 72 -2 48 0 103 4 110 3 5 1 11 -4 15 -7 3 -7
15 -1 29 5 13 6 27 3 30 -4 4 -6 23 -5 44 2 57 2 105 1 122 -2 24 10 90 21
110 19 36 77 71 126 77 27 3 51 7 53 9 2 2 11 -1 20 -5 8 -5 23 -6 31 -1z"/>
<path d="M12895 10866 c-16 -7 -40 -24 -52 -37 -35 -39 -44 -69 -43 -161 0
-10 0 -25 0 -33 0 -8 0 -22 0 -30 0 -8 0 -22 0 -30 0 -8 0 -22 0 -30 0 -8 0
-22 0 -30 0 -8 0 -22 0 -30 0 -8 0 -22 0 -30 0 -8 0 -22 0 -30 0 -8 0 -22 0
-30 0 -8 0 -22 0 -30 0 -8 0 -22 0 -30 0 -8 0 -22 0 -30 0 -8 0 -22 0 -30 0
-8 0 -22 0 -30 0 -8 0 -22 0 -30 0 -8 0 -22 0 -30 0 -8 0 -22 0 -30 0 -8 0
-22 0 -30 0 -8 0 -22 0 -30 0 -8 0 -22 0 -30 0 -8 0 -22 0 -30 0 -8 0 -22 0
-30 0 -8 0 -22 0 -30 0 -8 0 -22 0 -30 0 -8 0 -22 0 -30 0 -8 0 -22 0 -30 0
-8 0 -22 0 -30 0 -8 0 -22 0 -30 0 -8 0 -22 0 -30 0 -8 0 -22 0 -30 0 -8 0
-22 0 -30 0 -8 0 -22 0 -30 0 -8 0 -23 0 -32 0 -10 0 -34 -1 -53 0 -19 -1 -65
-2 -103 -1 -37 1 -67 5 -67 4 0 3 -13 -2 -30 -5 -17 -5 -30 0 -30 5 0 5 -13 0
-30 -5 -16 -6 -30 -2 -30 8 0 7 -74 -1 -87 -3 -5 -2 -15 3 -23 4 -7 4 -23 0
-36 -5 -12 -6 -24 -3 -28 3 -3 6 -26 8 -51 4 -75 58 -132 135 -141 24 -3 47
-7 51 -10 4 -2 10 0 13 5 4 6 18 6 35 1 15 -4 34 -4 41 0 6 4 27 4 46 0 19 -4
36 -4 39 0 3 5 18 5 34 0 15 -4 34 -4 41 0 6 4 27 4 46 0 19 -4 36 -4 39 0 3
5 18 5 34 0 16 -4 32 -6 35 -3 7 7 101 7 113 0 5 -3 15 -2 23 3 7 4 24 4 36 0
14 -6 26 -5 29 0 3 5 18 5 35 0 17 -5 30 -5 30 0 0 5 13 5 30 0 17 -5 30 -5
30 0 0 5 13 5 30 0 17 -5 30 -5 30 0 0 5 13 5 30 0 17 -5 30 -5 30 0 0 5 13 5
30 0 17 -5 30 -5 30 0 0 5 13 5 30 0 17 -5 30 -5 30 0 0 5 13 5 30 0 17 -5 30
-5 30 0 0 5 13 5 30 0 17 -5 30 -5 30 0 0 5 13 5 30 0 17 -5 30 -5 30 0 0 5
13 5 30 0 17 -5 30 -5 30 0 0 5 13 5 30 0 17 -5 30 -5 30 0 0 5 13 5 30 0 17
-5 30 -5 30 0 0 5 13 5 30 0 17 -5 30 -5 30 0 0 5 13 5 30 0 17 -5 30 -5 30 0
0 5 13 5 30 0 17 -5 30 -5 30 0 0 4 12 5 28 1 54 -16 172 43 172 86 0 7 4 13
10 13 6 0 9 295 7 859 -2 855 -2 860 -23 888 -11 15 -36 38 -54 50 l-32 23
-842 -1 c-681 0 -847 -2 -871 -13z"/>
<path d="M170 8320 c0 -3 -16 -5 -35 -6 -39 -1 -77 -25 -109 -68 -21 -27 -21
-34 -21 -885 l0 -858 28 -36 c33 -44 57 -58 103 -60 19 -1 34 -5 34 -9 0 -4
13 -3 30 2 16 5 30 5 30 1 0 -7 86 -5 107 3 7 3 15 1 18 -4 3 -6 15 -6 30 0
15 6 27 6 30 0 3 -6 15 -6 30 0 15 6 27 6 30 0 3 -6 15 -6 30 0 15 6 27 6 30
0 3 -6 15 -6 30 0 15 6 27 6 30 0 3 -6 15 -6 30 0 15 6 27 6 30 0 3 -5 15 -6
29 0 12 4 29 4 36 0 8 -5 21 -5 30 0 9 5 22 5 30 0 8 -5 21 -5 30 0 9 5 22 5
30 0 8 -5 21 -5 30 0 9 5 22 5 30 0 8 -5 21 -5 31 0 9 5 19 7 22 4 8 -9 237
-10 237 -1 0 5 5 5 10 2 6 -4 36 -6 68 -6 31 1 64 1 72 1 8 0 48 -1 88 -2 39
-2 72 0 72 4 0 4 13 3 28 -2 16 -4 35 -4 43 1 8 4 21 4 28 -1 8 -4 27 -4 42 0
16 5 29 6 29 2 0 -4 15 -6 32 -5 18 1 33 2 33 3 0 0 19 3 41 5 83 7 142 71
140 153 0 23 1 42 4 42 3 0 4 19 2 42 -1 24 -3 49 -2 56 0 6 0 19 0 27 0 8 0
22 0 30 0 8 0 22 0 30 0 8 0 22 0 30 0 8 0 22 0 30 0 8 0 22 0 30 0 8 0 22 0
30 0 8 0 22 0 30 0 8 0 23 0 33 0 9 0 37 1 62 1 25 1 51 0 58 0 6 -1 19 -1 27
0 8 0 22 0 30 0 8 0 22 0 30 0 8 0 22 0 30 0 8 0 22 0 30 0 8 0 22 0 30 0 8 0
22 0 30 0 8 0 22 0 30 0 8 0 22 0 30 0 8 0 22 0 30 0 8 0 22 0 30 0 8 0 22 0
30 0 8 0 22 0 30 0 8 0 22 0 30 0 8 0 22 0 30 0 8 0 22 0 30 0 8 0 22 0 30 0
8 0 22 0 30 0 8 0 22 0 30 0 8 0 22 0 30 0 8 0 21 0 28 -1 6 1 31 2 55 2 23 0
42 -4 42 -4 0 -3 14 2 30 5 17 5 30 0 30 -5 0 -5 13 0 30 5 17 5 30 0 30 -5 0
-5 13 0 30 5 17 5 30 0 30 -5 0 -5 13 0 30 5 17 5 30 0 30 -5 0 -5 13 0 30 5
17 6 30 2 30 -4 0 -7 23 -6 51 1 80 -54 146 -129 153 -21 2 -40 6 -43 9 -3 3
-16 2 -28 -3 -13 -4 -29 -4 -36 0 -8 5 -21 5 -30 0 -9 -5 -22 -5 -30 0 -8 5
-21 5 -30 0 -9 -5 -22 -5 -30 0 -8 5 -21 5 -30 0 -9 -5 -22 -5 -30 0 -8 5 -21
5 -31 0 -9 -5 -19 -7 -22 -4 -7 7 -287 11 -287 4 0 -7 -69 -4 -76 3 -3 3 -17
2 -30 -3 -14 -6 -26 -6 -29 0 -3 6 -15 6 -30 0 -15 -6 -27 -6 -30 0 -3 6 -15
6 -30 0 -15 -6 -27 -6 -30 0 -3 6 -15 6 -30 0 -15 -6 -27 -6 -30 0 -3 6 -15 6
-30 0 -15 -6 -27 -6 -30 0 -3 6 -15 6 -30 0 -15 -6 -27 -6 -30 0 -3 6 -15 6
-30 0 -15 -6 -27 -6 -30 0 -3 6 -15 6 -30 0 -15 -6 -27 -6 -30 0 -3 6 -15 6
-30 0 -15 -6 -27 -6 -30 0 -3 6 -15 6 -30 0 -15 -6 -27 -6 -30 0 -3 6 -15 6
-30 0 -15 -6 -27 -6 -30 0 -3 6 -15 6 -30 0 -15 -6 -27 -6 -30 0 -3 6 -15 6
-30 0 -14 -5 -27 -5 -30 0 -3 5 -18 5 -35 0 -17 -5 -30 -6 -30 -2 0 4 -16 7
-35 7 -19 0 -35 -2 -35 -5z"/>
<path d="M2909 8326 c-2 -2 -31 -6 -64 -10 -120 -13 -227 -98 -266 -214 -11
-34 -19 -68 -16 -75 2 -6 0 -24 -4 -39 -4 -16 -4 -28 1 -28 5 0 5 -12 1 -28
-5 -15 -5 -37 0 -49 5 -13 4 -25 -1 -28 -6 -3 -6 -15 0 -30 6 -15 6 -27 0 -30
-6 -3 -6 -15 0 -30 6 -15 6 -27 0 -30 -6 -3 -6 -15 0 -30 6 -15 6 -27 0 -30
-6 -3 -6 -15 0 -30 6 -15 6 -27 0 -30 -6 -3 -6 -15 0 -30 6 -15 6 -27 0 -30
-6 -3 -6 -15 0 -30 6 -15 6 -27 0 -30 -6 -3 -6 -15 0 -30 6 -15 6 -27 0 -30
-6 -3 -6 -15 0 -30 6 -15 6 -27 0 -30 -6 -3 -6 -15 0 -30 6 -15 6 -27 0 -30
-6 -3 -6 -15 0 -30 6 -15 6 -27 0 -30 -5 -3 -6 -15 -1 -28 5 -12 5 -32 0 -44
-5 -13 -4 -25 1 -28 6 -3 6 -15 0 -29 -5 -13 -6 -27 -3 -30 5 -5 7 -86 3 -101
-4 -15 -2 -206 3 -211 3 -3 1 -19 -3 -35 -5 -16 -6 -29 -2 -29 4 0 8 -19 9
-43 4 -132 139 -262 280 -272 17 -2 35 -5 40 -8 5 -3 15 -2 23 3 8 5 21 5 30
0 9 -5 22 -5 30 0 8 5 21 5 30 0 9 -5 22 -5 30 0 7 4 24 4 36 0 14 -6 26 -5
29 1 4 5 11 7 16 3 6 -3 38 -5 72 -5 77 2 70 2 195 0 56 -1 105 0 108 3 3 3
21 2 40 -2 19 -4 36 -4 39 1 3 4 16 4 28 0 12 -5 32 -5 45 0 12 5 22 5 22 1 0
-6 138 -7 148 -2 7 5 83 2 88 -3 3 -3 17 -2 30 3 14 6 26 6 29 0 3 -6 15 -6
30 0 15 6 27 6 30 0 3 -6 15 -6 30 0 15 6 27 6 30 0 3 -6 15 -6 30 0 15 6 27
6 30 -1 4 -5 10 -7 14 -5 4 3 26 7 50 10 51 6 131 35 131 47 0 5 6 9 13 9 20
0 83 76 108 129 13 29 21 67 22 108 1 35 4 63 7 63 3 0 5 34 5 75 0 41 -3 75
-7 75 -4 0 -3 13 2 30 5 18 5 32 -1 36 -5 3 -7 10 -3 15 8 13 9 107 1 115 -3
3 -2 17 3 30 6 14 6 26 0 29 -6 3 -6 15 0 30 6 15 6 27 0 30 -6 3 -6 15 0 30
6 15 6 27 0 30 -6 3 -6 15 0 30 6 15 6 27 0 30 -6 3 -6 15 0 30 6 15 6 27 0
30 -6 3 -6 15 0 30 6 15 6 27 0 30 -6 3 -6 15 0 30 6 15 6 27 0 30 -6 3 -6 15
0 30 6 15 6 27 0 30 -6 3 -6 15 0 30 6 15 6 27 0 30 -6 3 -6 15 0 30 6 15 6
27 0 30 -5 3 -7 12 -3 21 7 18 10 264 3 264 -3 0 -6 22 -7 49 -5 132 -129 259
-267 275 -26 3 -52 8 -57 11 -5 4 -9 2 -9 -4 0 -6 -11 -6 -30 -1 -17 5 -30 5
-30 0 0 -5 -13 -5 -30 0 -17 5 -30 5 -30 0 0 -5 -7 -7 -14 -4 -19 7 -286 11
-286 4 0 -7 -69 -4 -76 3 -3 3 -17 2 -30 -3 -14 -6 -26 -6 -29 0 -3 6 -15 6
-30 0 -15 -6 -27 -6 -30 0 -3 6 -15 6 -30 0 -15 -6 -27 -6 -30 0 -3 6 -15 6
-30 0 -15 -6 -27 -6 -30 0 -3 6 -15 6 -30 0 -15 -6 -27 -6 -30 0 -3 6 -15 6
-30 0 -15 -6 -27 -6 -30 0 -3 6 -15 6 -30 0 -15 -6 -27 -6 -30 0 -3 6 -15 6
-30 0 -15 -6 -27 -6 -30 0 -3 6 -15 6 -30 0 -15 -6 -27 -6 -30 0 -3 6 -15 6
-30 0 -15 -6 -27 -6 -30 0 -3 6 -15 6 -30 0 -15 -6 -27 -6 -30 0 -3 6 -15 6
-29 0 -14 -5 -27 -5 -33 1 -5 5 -11 8 -14 5z m4 -170 c6 6 24 6 135 1 28 -1
52 1 52 5 0 4 13 3 29 -2 16 -4 32 -6 35 -3 7 8 84 8 92 0 3 -3 17 -2 30 3 14
6 26 6 29 -1 4 -5 11 -7 16 -3 11 6 150 7 184 1 11 -2 32 -1 48 4 15 4 27 5
27 1 0 -6 59 -7 68 -2 7 5 73 2 78 -3 3 -3 17 -2 30 3 14 6 24 6 24 0 0 -5 12
-5 30 0 18 5 32 5 36 -1 3 -5 10 -6 16 -3 10 6 26 6 136 1 28 -1 52 1 52 5 0
4 13 3 29 -2 15 -4 34 -4 41 0 19 12 97 -12 135 -43 36 -29 60 -91 52 -134 -2
-13 -1 -26 4 -29 5 -2 4 -15 -1 -28 -5 -13 -6 -26 -3 -30 7 -7 10 -96 3 -96
-3 0 -5 -16 -5 -35 0 -19 2 -35 5 -35 6 0 4 -90 -3 -96 -3 -3 -1 -19 3 -35 5
-16 5 -29 2 -29 -8 0 -6 -75 2 -97 3 -7 2 -13 -3 -13 -5 0 -5 -15 -2 -32 4
-18 4 -50 0 -71 -3 -20 -3 -40 2 -43 4 -2 4 -15 -1 -28 -5 -13 -6 -27 -3 -30
7 -7 8 -84 1 -91 -3 -3 -2 -20 1 -37 4 -17 4 -58 1 -90 -3 -33 -2 -61 2 -64 4
-3 3 -15 -2 -28 -5 -13 -6 -27 -3 -30 4 -4 6 -23 5 -44 -2 -57 -2 -105 -1
-122 2 -24 -10 -90 -21 -110 -18 -34 -76 -70 -121 -76 -24 -3 -49 -7 -56 -9
-7 -2 -15 0 -18 5 -3 6 -15 6 -30 0 -15 -6 -27 -6 -30 1 -4 5 -11 7 -16 3 -6
-3 -46 -5 -90 -5 -43 1 -86 2 -94 1 -16 0 -29 0 -80 0 -16 0 -49 -1 -73 -3
-23 -1 -42 0 -42 3 0 7 -69 4 -76 -3 -3 -3 -16 -2 -28 3 -13 4 -29 5 -36 0 -7
-5 -23 -4 -36 0 -12 5 -24 7 -27 4 -7 -8 -116 -9 -123 -1 -3 3 -17 2 -30 -3
-13 -5 -25 -6 -28 -2 -3 5 -30 5 -61 2 -31 -3 -58 -3 -61 2 -3 4 -16 3 -29 -2
-15 -6 -27 -6 -30 1 -4 5 -11 7 -16 3 -11 -7 -131 -7 -203 0 -88 8 -138 64
-142 157 -1 33 -5 63 -8 66 -2 3 -1 15 4 28 5 13 6 26 2 29 -3 4 -5 32 -3 64
1 31 2 64 2 72 -2 45 0 103 3 109 3 4 1 13 -4 20 -4 8 -4 27 0 42 5 16 5 31 0
34 -5 3 -5 16 0 30 6 15 6 27 0 30 -6 3 -6 15 0 29 5 13 6 26 3 30 -8 8 -9 96
-2 96 4 0 3 16 -1 35 -4 19 -5 35 -1 35 3 0 5 19 4 42 -5 84 -5 127 2 138 3 5
2 10 -4 10 -6 0 -6 11 -1 30 5 17 5 32 0 35 -6 3 -5 16 0 29 5 13 6 27 3 30
-8 7 -6 133 2 146 3 5 1 11 -5 15 -6 4 -7 12 -3 18 4 6 6 23 5 38 -3 40 24 95
60 123 38 28 98 47 114 35 6 -5 14 -6 17 -3z"/>
<path d="M5232 8312 c-22 -7 -51 -25 -66 -41 -27 -28 -63 -121 -46 -121 5 0 5
-13 0 -29 -4 -15 -4 -34 0 -42 5 -7 5 -20 0 -29 -5 -9 -5 -22 0 -30 5 -8 5
-21 0 -30 -5 -9 -5 -22 0 -30 5 -8 5 -21 0 -30 -5 -9 -5 -22 0 -30 5 -8 5 -21
0 -30 -5 -9 -5 -22 0 -30 5 -8 5 -21 0 -30 -5 -9 -5 -22 0 -30 5 -8 5 -21 0
-30 -5 -9 -5 -22 0 -30 5 -8 5 -21 0 -30 -5 -9 -5 -22 0 -30 5 -8 5 -21 0 -30
-5 -9 -5 -22 0 -30 5 -8 5 -21 0 -30 -5 -9 -5 -22 0 -30 5 -8 5 -21 0 -30 -5
-9 -5 -22 0 -30 5 -8 5 -21 0 -30 -5 -9 -5 -22 0 -30 5 -8 5 -21 0 -30 -5 -9
-5 -22 0 -30 5 -8 5 -21 0 -30 -5 -9 -5 -22 0 -30 5 -8 5 -21 0 -30 -5 -9 -5
-22 0 -30 5 -8 5 -21 0 -30 -5 -9 -5 -22 0 -30 5 -8 5 -21 0 -30 -5 -9 -5 -22
0 -30 5 -8 5 -21 0 -30 -5 -9 -5 -22 0 -30 5 -8 5 -21 0 -30 -5 -9 -5 -22 0
-30 5 -8 5 -21 0 -30 -5 -9 -5 -22 0 -30 5 -8 5 -21 0 -30 -5 -9 -5 -22 0 -30
5 -8 5 -21 0 -30 -5 -9 -5 -22 0 -30 5 -8 5 -21 0 -30 -5 -9 -5 -22 0 -30 5
-8 5 -21 0 -30 -5 -9 -5 -22 0 -30 5 -8 5 -21 0 -30 -5 -9 -5 -22 0 -30 5 -8
5 -21 0 -31 -5 -9 -7 -19 -4 -22 3 -2 7 -23 9 -46 2 -23 9 -50 15 -61 16 -31
88 -79 111 -75 10 2 19 1 19 -3 0 -8 412 -7 433 1 8 3 20 1 27 -3 7 -5 24 -4
36 0 14 6 26 5 29 0 3 -6 15 -6 30 0 15 6 27 6 30 0 3 -6 15 -6 30 0 15 6 27
6 30 0 3 -6 15 -6 30 0 15 6 27 6 30 0 3 -6 15 -6 30 0 15 6 27 6 30 0 3 -6
15 -6 30 0 15 6 27 6 30 0 3 -6 15 -6 30 0 15 6 27 6 30 0 3 -6 15 -6 30 0 15
6 27 6 30 0 3 -6 15 -6 30 0 15 6 27 6 30 0 3 -6 15 -6 30 0 13 5 27 6 29 1 3
-4 25 -5 49 -1 25 3 54 3 65 -1 12 -5 24 -4 27 1 4 6 13 7 24 1 9 -5 23 -6 31
-1 7 4 19 6 26 3 20 -7 234 -9 234 -1 0 4 13 3 29 -2 15 -4 34 -4 41 0 7 5 19
6 26 3 24 -9 83 18 110 50 42 50 45 64 43 210 0 9 0 37 0 62 0 25 0 51 0 58
-1 26 0 113 2 137 0 14 1 31 0 38 0 6 0 37 0 67 0 30 0 63 0 73 0 9 0 35 0 57
0 22 0 47 0 55 0 8 0 38 0 65 0 28 0 56 0 63 0 13 0 74 0 97 0 12 0 67 0 138
0 6 0 41 -1 77 -1 89 -1 202 -1 218 0 12 1 125 0 160 0 9 0 42 1 72 0 80 -7
122 -28 149 -32 43 -68 64 -117 66 -25 2 -48 5 -51 8 -4 3 -17 2 -30 -3 -14
-6 -26 -6 -29 0 -3 6 -15 6 -30 0 -15 -6 -27 -6 -30 0 -3 6 -15 6 -30 0 -15
-6 -27 -6 -30 0 -3 6 -15 6 -30 0 -15 -6 -27 -6 -30 0 -3 6 -15 6 -30 0 -15
-6 -27 -6 -30 0 -3 6 -15 6 -29 0 -13 -5 -26 -6 -30 -3 -3 3 -278 6 -611 7
-468 1 -614 -2 -643 -12z"/>
<path d="M8035 8322 c-2 -2 -30 -5 -63 -7 -32 -2 -79 -13 -104 -25 -52 -24
-128 -88 -128 -107 0 -7 -4 -13 -9 -13 -11 0 -40 -77 -46 -121 -4 -30 -6 -80
-5 -144 1 -50 1 -161 1 -175 -2 -41 1 -105 5 -112 3 -4 1 -8 -3 -8 -5 0 -6
-27 -3 -60 3 -33 3 -65 0 -70 -4 -6 -3 -33 0 -61 4 -27 4 -52 0 -54 -3 -2 -3
-29 0 -59 3 -31 3 -61 0 -66 -4 -6 -3 -33 0 -60 4 -28 2 -50 -2 -50 -5 0 -7
-4 -4 -8 3 -5 5 -33 6 -63 1 -87 1 -191 -1 -234 -3 -98 9 -191 32 -241 48
-101 153 -173 261 -179 33 -2 62 -5 65 -8 3 -3 16 -2 29 3 14 6 26 6 29 0 3
-6 15 -6 30 0 15 6 27 6 30 0 3 -6 15 -6 30 0 15 6 27 6 30 0 3 -6 15 -6 30 0
15 6 27 6 30 0 3 -6 15 -6 30 0 15 6 27 6 30 0 3 -5 15 -6 29 0 12 4 29 4 36
0 8 -5 21 -5 30 0 9 5 22 5 30 0 8 -5 21 -5 30 0 9 5 22 5 30 0 8 -5 21 -5 30
0 9 5 22 5 30 0 8 -5 21 -5 31 0 9 5 19 7 22 4 8 -9 237 -10 237 -1 0 5 5 5
10 2 6 -4 36 -6 68 -6 79 1 75 1 187 0 55 0 102 0 105 1 3 0 32 3 66 5 76 5
144 36 199 90 38 38 74 97 82 135 6 26 14 85 14 98 -1 6 -1 19 -1 27 0 8 0 22
0 30 0 8 0 22 0 30 0 8 0 22 0 30 0 8 0 22 0 30 0 8 0 22 0 30 0 8 0 22 0 30
0 8 0 23 0 33 0 9 0 33 1 52 0 19 1 65 2 103 1 37 -1 67 -5 67 -4 0 -3 14 2
30 5 17 5 30 0 30 -5 0 -5 13 0 30 5 17 5 30 0 30 -5 0 -5 13 0 30 5 17 5 30
0 30 -5 0 -5 13 0 30 5 17 5 30 0 30 -4 0 -5 15 -1 33 4 17 4 47 0 65 -3 17
-3 32 2 32 4 0 4 13 -1 29 -4 15 -4 34 0 42 5 7 5 20 0 29 -5 9 -5 22 0 30 5
8 5 21 0 30 -5 9 -5 22 0 30 5 8 5 21 0 30 -5 9 -5 22 0 30 5 8 5 21 0 30 -5
9 -5 22 0 30 5 8 5 21 0 30 -5 9 -5 22 0 30 5 8 6 18 4 22 -3 4 -7 37 -9 72
-9 155 -130 279 -286 291 -33 2 -64 7 -69 10 -5 3 -11 1 -15 -4 -3 -7 -15 -7
-30 -1 -15 6 -27 6 -30 0 -3 -6 -15 -6 -30 0 -15 6 -27 6 -30 0 -3 -6 -15 -6
-30 0 -15 6 -27 6 -30 -1 -4 -5 -11 -7 -16 -3 -6 3 -34 6 -62 5 -69 -2 -66 -2
-185 0 -56 1 -105 0 -108 -3 -3 -3 -21 -2 -40 2 -19 4 -36 4 -39 -1 -3 -4 -16
-4 -28 0 -12 5 -32 5 -44 0 -13 -5 -23 -5 -23 -1 0 8 -138 8 -146 0 -3 -3 -20
-2 -38 2 -19 4 -40 4 -47 -1 -7 -4 -17 -5 -22 -2 -10 6 -206 10 -212 5z m38
-166 c7 8 116 9 123 1 3 -3 17 -2 30 3 14 6 26 6 29 -1 4 -5 10 -7 15 -4 4 2
30 5 56 5 56 0 81 0 142 3 23 1 42 0 42 -3 0 -7 69 -4 76 3 3 3 16 2 28 -3 13
-4 29 -5 36 0 7 5 23 4 36 0 12 -5 24 -7 27 -4 7 8 116 9 123 1 3 -3 16 -2 29
3 13 5 26 6 29 3 8 -8 113 -6 126 2 6 3 10 3 10 -2 0 -6 58 -9 68 -3 7 5 73 2
78 -3 3 -3 17 -2 30 3 15 6 24 6 24 0 0 -5 7 -7 15 -4 8 4 37 3 63 -1 64 -10
117 -64 128 -132 5 -27 7 -52 5 -57 -2 -7 -2 -150 0 -266 0 -8 0 -35 0 -60 -1
-25 -1 -70 -1 -100 1 -30 1 -111 1 -180 0 -69 0 -132 0 -140 0 -8 0 -24 -1
-35 -1 -18 -2 -214 -1 -240 0 -24 1 -71 0 -87 0 -10 0 -46 1 -80 0 -35 -2 -76
-5 -93 -7 -34 -47 -90 -75 -105 -18 -9 -84 -23 -105 -22 -41 3 -57 3 -107 1
-32 -2 -60 0 -64 4 -3 3 -17 2 -30 -3 -13 -5 -25 -6 -28 -2 -3 5 -30 5 -61 2
-31 -3 -58 -3 -61 2 -3 4 -16 3 -29 -2 -15 -6 -27 -6 -30 1 -4 5 -11 7 -16 3
-11 -6 -150 -7 -184 -1 -11 2 -32 1 -47 -4 -16 -4 -28 -5 -28 -1 0 6 -59 7
-67 2 -8 -5 -74 -2 -79 3 -3 3 -17 2 -30 -3 -14 -6 -24 -6 -24 0 0 5 -12 5
-30 0 -18 -5 -32 -5 -36 1 -3 5 -10 6 -16 3 -10 -6 -26 -6 -136 -1 -28 1 -52
-1 -52 -5 0 -4 -13 -3 -29 2 -15 4 -34 4 -41 0 -32 -20 -146 34 -171 82 -10
18 -22 99 -20 136 1 21 1 41 0 92 -1 28 1 53 4 56 3 3 1 19 -3 35 -5 16 -5 29
-1 29 5 0 5 18 1 39 -4 22 -4 45 0 52 4 6 4 25 0 40 -5 16 -6 29 -2 29 8 0 7
119 -1 127 -3 3 -2 15 3 27 4 13 4 29 0 36 -5 8 -5 21 0 30 5 9 5 22 0 30 -5
8 -5 21 0 31 5 9 7 19 3 22 -7 8 -8 106 0 113 3 3 1 19 -3 35 -5 16 -6 29 -2
29 8 0 6 119 -2 127 -2 3 -1 15 4 27 4 13 4 29 0 36 -5 8 -4 22 1 31 6 11 5
20 -1 24 -5 3 -6 15 0 29 4 12 5 29 0 36 -4 7 -7 18 -5 24 2 6 6 31 9 55 6 45
42 103 76 121 10 5 36 13 57 16 21 3 40 7 42 9 1 2 13 0 26 -5 13 -5 25 -7 28
-4z"/>
<path d="M10427 8324 c-1 -1 -20 -4 -42 -7 -102 -13 -142 -71 -148 -210 -1
-26 1 -47 5 -47 4 0 4 -10 -1 -22 -4 -13 -5 -35 0 -50 4 -16 4 -28 -1 -28 -4
0 -4 -16 0 -35 4 -19 5 -35 1 -35 -3 0 -6 -18 -6 -40 0 -22 3 -40 7 -40 4 0 3
-13 -2 -30 -5 -17 -5 -32 0 -35 5 -3 5 -16 1 -28 -5 -12 -5 -34 0 -49 4 -16 4
-28 -1 -28 -4 0 -4 -16 0 -35 4 -19 5 -35 1 -35 -3 0 -6 -18 -6 -40 0 -22 3
-40 7 -40 4 0 3 -13 -2 -30 -5 -17 -5 -32 0 -35 5 -3 5 -16 1 -28 -5 -12 -5
-34 0 -49 4 -16 4 -28 -1 -28 -4 0 -4 -16 0 -35 4 -19 5 -35 1 -35 -3 0 -6
-18 -6 -40 0 -22 3 -40 7 -40 4 0 3 -13 -2 -30 -5 -17 -5 -32 0 -35 5 -3 5
-16 1 -28 -5 -12 -5 -34 0 -49 4 -16 4 -28 -1 -28 -4 0 -4 -16 0 -35 4 -19 5
-35 1 -35 -3 0 -6 -18 -6 -40 0 -22 3 -40 7 -40 4 0 3 -13 -2 -30 -5 -17 -5
-32 0 -35 5 -3 5 -16 1 -28 -5 -12 -5 -34 0 -49 4 -16 4 -28 -1 -28 -4 0 -4
-16 0 -35 4 -19 4 -35 -1 -35 -4 0 -7 -6 -4 -12 2 -7 6 -33 9 -58 9 -73 59
-125 131 -136 22 -3 41 -7 43 -9 2 -1 19 1 38 5 18 4 34 4 34 0 0 -5 14 -5 30
0 17 5 30 5 30 0 0 -5 13 -5 30 0 17 5 30 5 30 0 0 -5 13 -5 30 0 17 5 30 5
30 0 0 -5 12 -5 28 -1 15 5 37 5 49 0 13 -5 25 -4 28 2 4 5 11 7 16 3 6 -3 38
-5 72 -5 83 2 82 2 165 -1 39 -2 72 0 72 4 0 4 13 3 29 -2 15 -4 34 -4 41 0 7
4 25 4 40 0 15 -4 33 -4 41 0 7 5 17 6 22 3 13 -8 147 -9 147 -1 0 4 13 3 29
-2 16 -4 32 -6 35 -3 7 8 84 8 92 0 3 -3 17 -2 30 3 14 6 26 6 29 0 3 -6 15
-6 30 0 15 6 27 6 30 0 3 -6 15 -6 30 0 15 6 27 6 30 0 3 -6 15 -6 30 0 15 6
27 6 30 0 3 -6 15 -6 29 0 13 5 27 6 30 3 8 -8 74 -8 82 0 3 3 16 2 29 -3 13
-5 25 -6 28 -4 3 3 11 6 19 8 66 10 118 72 124 145 2 25 4 48 5 51 3 11 -2
133 -5 139 -3 4 -1 13 4 20 4 8 4 27 0 42 -5 16 -6 29 -2 29 8 0 7 138 -1 146
-3 3 -2 18 3 33 4 15 4 34 -1 42 -4 8 -4 21 1 28 4 8 4 27 0 42 -5 16 -6 29
-2 29 8 0 7 138 -1 146 -3 3 -2 18 3 33 4 16 4 34 0 42 -5 7 -5 20 -1 28 5 8
5 27 1 43 -5 15 -6 28 -2 28 6 0 7 135 2 150 -2 3 -1 9 0 15 5 25 3 116 -3
121 -3 4 -3 14 2 23 5 9 5 25 1 36 -4 11 -4 30 1 42 5 13 4 25 -1 28 -6 3 -6
15 0 30 6 15 6 27 0 30 -6 3 -6 15 0 30 6 15 6 27 0 30 -6 3 -6 15 0 30 5 13
5 27 1 30 -5 3 -5 20 -1 39 4 19 6 36 5 38 -2 2 -6 21 -9 43 -12 74 -64 123
-141 131 -28 3 -56 7 -62 9 -7 3 -13 0 -13 -5 0 -5 -12 -5 -29 0 -15 4 -34 4
-41 0 -7 -4 -25 -4 -40 0 -15 4 -33 4 -41 0 -7 -5 -17 -6 -22 -3 -13 8 -147 9
-147 1 0 -4 -13 -3 -29 2 -16 4 -32 6 -35 3 -9 -9 -58 -9 -83 -1 -12 4 -25 3
-28 -2 -3 -6 -15 -6 -30 0 -15 6 -27 6 -30 0 -3 -6 -15 -6 -30 0 -15 6 -27 6
-30 0 -3 -6 -15 -6 -30 0 -15 6 -27 6 -30 0 -3 -6 -15 -6 -30 0 -15 6 -27 6
-30 0 -3 -6 -15 -6 -30 0 -15 6 -27 6 -30 0 -3 -6 -15 -6 -30 0 -15 6 -27 6
-30 0 -3 -6 -15 -6 -30 0 -15 6 -27 6 -30 0 -3 -6 -15 -6 -30 0 -15 6 -27 6
-30 0 -3 -6 -15 -6 -30 0 -15 6 -27 6 -30 0 -3 -6 -15 -6 -30 0 -15 6 -27 6
-30 0 -3 -6 -15 -6 -30 0 -15 6 -27 6 -30 0 -3 -6 -15 -6 -30 0 -15 6 -27 6
-30 0 -3 -6 -15 -6 -30 0 -15 6 -27 6 -30 0 -3 -6 -15 -6 -30 0 -15 6 -27 6
-30 0 -3 -6 -15 -6 -30 0 -15 6 -27 6 -30 -1 -4 -5 -11 -7 -16 -4 -8 5 -98 13
-102 9z"/>
<path d="M12912 8312 c-67 -23 -123 -100 -109 -153 3 -10 2 -19 -1 -19 -4 0
-7 -16 -7 -35 0 -19 3 -35 7 -35 4 0 3 -13 -2 -30 -5 -17 -5 -30 0 -30 5 0 5
-13 0 -30 -5 -17 -5 -30 0 -30 5 0 5 -13 0 -30 -5 -17 -5 -30 0 -30 5 0 5 -13
0 -30 -5 -17 -5 -30 0 -30 5 0 5 -13 0 -30 -5 -17 -5 -30 0 -30 5 0 5 -13 0
-30 -5 -17 -5 -30 0 -30 5 0 5 -13 0 -30 -5 -17 -5 -30 0 -30 5 0 5 -13 0 -30
-5 -17 -5 -30 0 -30 5 0 5 -13 0 -30 -5 -17 -5 -30 0 -30 5 0 5 -13 0 -30 -5
-17 -5 -30 0 -30 5 0 5 -13 0 -30 -5 -17 -5 -30 0 -30 5 0 5 -13 0 -30 -5 -17
-5 -30 0 -30 5 0 5 -13 0 -30 -5 -17 -5 -30 0 -30 5 0 5 -13 0 -30 -5 -16 -5
-30 -1 -30 5 0 5 -15 2 -32 -4 -18 -4 -47 0 -64 3 -18 3 -38 -2 -45 -4 -7 -4
-20 1 -29 5 -9 5 -22 0 -30 -5 -8 -5 -21 0 -30 5 -9 5 -22 0 -30 -5 -8 -5 -21
0 -30 5 -9 5 -22 0 -30 -5 -8 -5 -21 0 -30 5 -9 5 -22 0 -30 -5 -8 -5 -21 0
-30 5 -9 5 -22 0 -30 -5 -8 -6 -18 -3 -23 8 -13 9 -87 1 -87 -4 0 -3 -13 2
-30 5 -18 5 -32 -1 -36 -5 -3 -7 -9 -4 -14 3 -4 7 -29 10 -54 2 -25 9 -55 15
-66 16 -31 88 -79 111 -75 10 2 19 1 19 -3 0 -8 412 -7 433 1 8 3 20 1 27 -3
7 -5 24 -4 36 0 14 6 26 5 29 0 3 -6 15 -6 30 0 15 6 27 6 30 0 3 -6 15 -6 30
0 15 6 27 6 30 0 3 -6 15 -6 30 0 15 6 27 6 30 0 3 -6 15 -6 30 0 15 6 27 6
30 0 3 -6 15 -6 30 0 15 6 27 6 30 0 3 -6 15 -6 30 0 15 6 27 6 30 0 3 -6 15
-6 30 0 15 6 27 6 30 0 3 -6 15 -6 30 0 15 6 27 6 30 0 3 -6 15 -6 30 0 13 5
27 6 29 1 3 -4 25 -5 49 -1 25 3 54 3 65 -1 12 -5 24 -4 27 1 4 6 13 7 24 1 9
-5 23 -6 31 -1 7 4 19 6 26 3 20 -7 234 -9 234 -1 0 4 13 3 29 -2 15 -4 34 -4
41 0 7 4 20 6 30 3 29 -8 86 23 116 63 l29 37 0 858 c0 851 0 858 -21 885 -34
46 -69 67 -119 69 -25 2 -48 5 -51 8 -4 3 -17 2 -30 -3 -14 -6 -26 -6 -29 0
-3 6 -15 6 -30 0 -15 -6 -27 -6 -30 0 -3 6 -15 6 -30 0 -15 -6 -27 -6 -30 0
-3 6 -15 6 -30 0 -15 -6 -27 -6 -30 0 -3 6 -15 6 -30 0 -15 -6 -27 -6 -30 0
-3 6 -15 6 -29 0 -13 -5 -26 -6 -30 -3 -3 3 -278 6 -611 7 -467 1 -614 -2
-643 -12z"/>
<path d="M207 5764 c-3 -3 -27 -6 -54 -8 -62 -5 -113 -36 -136 -85 -16 -34
-17 -94 -15 -883 3 -837 3 -847 24 -874 11 -15 33 -37 48 -48 27 -21 34 -21
886 -21 852 0 859 0 886 21 46 34 68 71 69 114 0 22 2 40 5 40 3 0 5 16 5 35
0 19 -3 35 -7 35 -4 0 -3 14 2 30 5 17 5 30 0 30 -5 0 -5 13 0 30 5 17 5 30 0
30 -5 0 -5 13 0 30 5 17 5 30 0 30 -4 0 -5 15 -1 33 4 17 4 47 0 65 -3 17 -3
32 2 32 4 0 4 13 -1 29 -4 16 -6 32 -3 34 7 8 9 167 1 167 -4 0 -3 14 2 30 5
17 5 30 0 30 -5 0 -5 13 0 30 5 17 5 30 0 30 -5 0 -5 13 0 30 5 17 5 30 0 30
-5 0 -5 13 0 30 5 17 5 30 0 30 -5 0 -5 13 0 30 5 17 5 30 0 30 -4 0 -5 15 -1
33 4 17 4 46 1 64 -4 17 -4 37 1 44 4 7 4 20 -1 29 -5 9 -5 22 0 30 5 8 5 21
0 30 -5 9 -5 22 0 30 5 8 5 21 0 30 -5 9 -5 22 0 30 5 8 5 21 0 30 -5 9 -5 22
0 30 5 8 5 21 0 30 -5 9 -5 22 0 30 5 8 6 18 3 23 -8 13 -9 87 -1 87 4 0 3 13
-2 30 -5 18 -5 32 1 36 5 3 7 9 4 14 -3 4 -7 30 -10 57 -7 73 -60 132 -126
139 -57 6 -118 6 -129 -1 -5 -3 -10 -2 -10 4 0 6 -11 7 -27 2 -16 -4 -40 -4
-55 0 -16 4 -28 3 -28 -1 0 -5 -14 -5 -30 0 -17 5 -30 5 -30 0 0 -5 -13 -5
-30 0 -17 5 -30 5 -30 0 0 -5 -13 -5 -30 0 -19 5 -30 5 -30 -1 0 -6 -4 -7 -10
-4 -13 8 -108 11 -115 3 -4 -3 -19 -3 -34 2 -16 4 -34 4 -41 0 -6 -4 -27 -4
-46 0 -19 4 -36 4 -39 0 -3 -5 -18 -5 -34 0 -15 4 -34 4 -41 0 -6 -4 -27 -4
-46 0 -19 4 -36 4 -39 0 -3 -5 -18 -5 -34 0 -15 4 -34 4 -41 0 -6 -4 -27 -4
-46 0 -19 4 -36 4 -39 0 -3 -5 -18 -5 -34 0 -15 4 -34 4 -41 0 -6 -4 -27 -4
-46 0 -19 4 -36 4 -39 0 -3 -5 -18 -5 -34 0 -15 4 -34 4 -41 0 -6 -4 -27 -4
-46 0 -19 4 -36 4 -39 0 -3 -5 -18 -5 -34 0 -15 4 -34 4 -41 0 -6 -4 -27 -4
-46 0 -19 4 -36 4 -39 0 -3 -5 -18 -5 -34 0 -16 4 -32 6 -34 4z"/>
<path d="M2920 5762 c0 -4 -24 -7 -53 -8 -91 -1 -148 -25 -212 -89 -56 -57
-86 -123 -91 -204 -2 -36 -4 -67 -4 -68 -4 -11 -2 -205 3 -209 3 -3 2 -18 -2
-32 -5 -15 -5 -36 -1 -47 4 -11 5 -24 2 -29 -7 -12 -6 -205 1 -212 3 -3 2 -18
-2 -32 -5 -15 -5 -36 -1 -47 4 -11 5 -24 2 -29 -4 -8 -6 -196 -2 -213 2 -5 2
-12 1 -17 -5 -26 -4 -106 1 -112 4 -3 3 -17 -2 -30 -6 -14 -6 -26 0 -29 6 -3
6 -15 0 -30 -6 -15 -6 -27 0 -30 6 -3 6 -15 0 -30 -5 -14 -5 -27 0 -30 5 -3 5
-18 0 -35 -5 -17 -6 -30 -2 -30 4 0 8 -22 9 -49 4 -97 79 -202 178 -251 l50
-25 725 0 725 0 49 24 c60 30 125 94 151 147 21 42 23 50 31 108 3 22 7 44 10
48 3 4 1 8 -5 8 -6 0 -6 11 -1 30 5 17 5 32 0 35 -5 3 -5 16 0 30 6 15 6 27 0
30 -6 3 -6 15 0 30 6 15 6 27 0 30 -6 3 -6 15 0 29 5 13 6 26 3 30 -7 7 -10
96 -3 96 3 0 5 34 5 75 0 41 -3 75 -7 75 -4 0 -3 13 2 30 5 17 5 32 0 35 -5 3
-5 16 -1 28 5 12 5 34 0 49 -4 16 -5 28 -1 28 4 0 7 34 7 75 0 41 -3 75 -7 75
-4 0 -3 13 2 30 5 18 5 32 -1 36 -5 3 -7 10 -3 15 8 13 9 113 1 126 -3 5 -2
15 3 23 5 8 5 21 0 30 -5 9 -5 22 0 30 4 7 4 24 0 36 -6 14 -5 26 0 29 6 3 6
15 0 30 -6 15 -6 27 1 30 5 4 7 11 3 16 -3 6 -7 27 -8 47 -5 76 -33 138 -89
195 -52 52 -119 85 -189 93 -29 3 -59 7 -65 9 -7 3 -13 0 -13 -4 0 -5 -15 -5
-34 -1 -19 4 -39 4 -46 0 -7 -4 -27 -4 -46 0 -19 4 -36 4 -39 0 -3 -5 -18 -5
-34 0 -16 4 -32 6 -35 2 -8 -8 -102 -5 -116 3 -5 3 -10 2 -10 -4 0 -6 -11 -6
-30 -1 -17 5 -30 5 -30 0 0 -5 -13 -5 -30 0 -17 5 -30 5 -30 0 0 -5 -13 -5
-30 0 -17 5 -30 5 -30 0 0 -5 -13 -5 -30 0 -17 5 -30 5 -30 0 0 -5 -13 -5 -30
0 -17 5 -30 5 -30 0 0 -5 -13 -5 -30 0 -17 5 -30 5 -30 0 0 -5 -13 -5 -30 0
-17 5 -30 5 -30 0 0 -5 -13 -5 -30 0 -17 5 -30 5 -30 0 0 -5 -13 -5 -30 0 -17
5 -30 5 -30 0 0 -5 -13 -5 -30 0 -17 5 -30 5 -30 0 0 -5 -13 -5 -30 0 -17 5
-30 5 -30 0 0 -5 -13 -5 -30 0 -17 5 -30 5 -30 0 0 -5 -13 -5 -30 0 -17 5 -30
5 -30 0 0 -5 -13 -5 -30 0 -16 5 -30 6 -30 2z m120 -159 c0 4 4 5 10 2 8 -5
118 -6 320 -4 25 0 65 0 90 0 25 -1 52 -1 60 0 8 0 62 0 120 -1 58 0 182 0
275 0 257 0 301 -3 332 -26 51 -39 67 -70 69 -140 2 -36 5 -68 8 -71 2 -3 1
-15 -4 -27 -4 -13 -5 -29 0 -36 5 -7 4 -24 0 -36 -6 -14 -5 -26 0 -29 6 -3 6
-15 0 -30 -5 -13 -6 -26 -2 -29 5 -3 5 -30 2 -61 -3 -31 -3 -58 2 -61 4 -3 3
-15 -2 -28 -5 -13 -6 -27 -2 -30 3 -4 5 -32 3 -64 -1 -31 -2 -64 -2 -72 2 -48
0 -103 -4 -110 -3 -5 -1 -11 4 -15 7 -3 7 -15 1 -29 -5 -13 -6 -27 -2 -30 3
-4 5 -32 3 -64 -1 -31 -2 -64 -2 -72 2 -45 0 -103 -3 -109 -3 -4 -1 -13 4 -21
4 -7 5 -23 0 -35 -5 -12 -5 -28 0 -35 5 -7 4 -24 0 -36 -6 -14 -5 -26 0 -29 6
-3 6 -15 0 -30 -5 -13 -6 -27 -1 -29 16 -10 -9 -120 -35 -153 -30 -39 -50 -51
-101 -59 -21 -3 -39 -7 -41 -9 -2 -2 -15 0 -30 4 -15 4 -39 4 -54 0 -15 -4
-30 -4 -33 1 -3 5 -15 6 -29 0 -12 -4 -29 -4 -36 0 -8 5 -21 5 -30 0 -9 -5
-22 -5 -28 -1 -7 4 -35 5 -62 1 -27 -4 -55 -3 -62 1 -6 4 -19 4 -28 -1 -9 -5
-22 -5 -30 0 -8 5 -21 5 -30 0 -9 -5 -22 -5 -30 0 -7 4 -23 4 -36 0 -12 -5
-24 -7 -27 -4 -7 7 -116 9 -123 2 -3 -4 -18 -2 -34 2 -16 4 -31 6 -34 3 -7 -7
-101 -7 -113 0 -5 3 -15 2 -23 -3 -7 -4 -24 -4 -36 0 -14 6 -26 5 -29 0 -3 -5
-18 -5 -35 0 -18 5 -32 5 -36 -1 -3 -5 -10 -7 -15 -3 -13 7 -117 9 -125 2 -3
-4 -18 -3 -33 2 -16 4 -34 4 -41 0 -7 -5 -18 -7 -24 -5 -6 2 -26 6 -44 9 -37
5 -96 46 -114 79 -6 12 -12 44 -14 70 -1 27 -4 51 -7 54 -3 3 -2 15 3 28 5 13
6 26 3 29 -8 8 -6 133 2 146 3 6 1 10 -5 10 -6 0 -8 5 -5 10 9 14 10 108 2
116 -3 3 -2 16 3 29 5 13 6 26 2 29 -3 4 -5 32 -3 64 1 31 2 64 2 72 -2 48 0
103 4 110 3 5 1 11 -4 15 -7 3 -7 15 -1 29 5 13 6 27 2 30 -3 4 -5 32 -3 64 1
31 2 64 2 72 -2 48 0 103 4 110 3 5 1 11 -4 15 -7 3 -7 15 -1 29 5 13 6 27 3
30 -4 4 -6 23 -5 44 2 57 2 105 1 122 -2 24 10 90 21 110 32 60 127 91 242 80
32 -3 58 -2 58 3z"/>
<path d="M5241 5754 c-24 -7 -56 -25 -72 -40 -40 -38 -50 -72 -49 -166 0 -10
0 -25 0 -33 0 -8 0 -22 0 -30 0 -8 0 -22 0 -30 0 -8 0 -22 0 -30 0 -8 0 -22 0
-30 0 -8 0 -22 0 -30 0 -8 0 -22 0 -30 0 -8 0 -22 0 -30 0 -8 0 -22 0 -30 0
-8 0 -22 0 -30 0 -8 0 -22 0 -30 0 -8 0 -22 0 -30 0 -8 0 -22 0 -30 0 -8 0
-22 0 -30 0 -8 0 -22 0 -30 0 -8 0 -22 0 -30 0 -8 0 -22 0 -30 0 -8 0 -22 0
-30 0 -8 0 -22 0 -30 0 -8 0 -22 0 -30 0 -8 0 -22 0 -30 0 -8 0 -22 0 -30 0
-8 0 -22 0 -30 0 -8 0 -22 0 -30 0 -8 0 -22 0 -30 0 -8 0 -22 0 -30 0 -8 0
-22 0 -30 0 -8 0 -22 0 -30 0 -8 0 -22 0 -30 0 -8 0 -22 0 -30 0 -8 0 -22 0
-30 0 -8 0 -22 0 -30 0 -8 0 -22 0 -30 0 -8 0 -38 1 -65 1 -28 -1 -53 -4 -56
-3 -3 -1 -19 3 -35 5 -16 6 -29 2 -29 -4 0 -7 -34 -7 -75 0 -41 3 -75 7 -75 4
0 3 -13 -2 -28 -4 -16 -4 -35 1 -43 4 -8 4 -21 -1 -28 -4 -8 -4 -27 0 -42 5
-17 5 -29 0 -29 -5 0 -7 -6 -5 -12 2 -7 7 -33 9 -58 6 -48 26 -82 70 -114 27
-21 37 -21 876 -23 792 -3 852 -2 883 15 69 35 89 93 87 252 -1 36 -1 72 -1
80 0 8 0 44 0 80 0 36 0 72 0 80 0 8 0 80 0 160 0 80 0 152 0 160 2 40 -1 105
-5 111 -2 4 -1 10 4 13 4 3 5 30 2 60 -3 31 -3 61 0 66 4 6 3 33 0 60 -4 28
-2 50 2 50 5 0 7 4 4 8 -5 9 -7 82 -5 185 1 37 0 70 -3 72 -2 2 -1 31 2 65 3
33 2 60 -3 60 -4 0 -6 4 -3 8 7 11 8 82 4 165 -6 99 -53 153 -141 162 -27 3
-53 7 -57 10 -5 3 -11 1 -14 -4 -3 -5 -21 -6 -38 -2 -18 4 -48 4 -65 0 -18 -3
-33 -3 -33 2 0 4 -13 4 -30 -1 -17 -5 -30 -5 -30 0 0 5 -13 5 -30 0 -17 -5
-30 -5 -30 0 0 5 -13 5 -30 0 -17 -5 -30 -5 -30 0 0 5 -13 5 -30 0 -17 -5 -30
-5 -30 0 0 5 -13 5 -30 0 -17 -5 -30 -5 -30 0 0 5 -13 5 -29 0 -15 -4 -34 -4
-42 0 -7 5 -20 5 -29 0 -9 -5 -22 -5 -30 0 -8 5 -21 5 -30 0 -9 -5 -22 -5 -30
0 -8 5 -21 5 -30 0 -9 -5 -22 -5 -30 0 -8 5 -21 5 -30 0 -9 -5 -22 -5 -30 0
-8 5 -21 5 -30 0 -9 -5 -22 -5 -30 0 -8 5 -21 5 -30 0 -9 -5 -22 -5 -30 0 -8
5 -21 5 -30 0 -9 -5 -22 -5 -30 0 -8 5 -21 5 -30 0 -9 -5 -22 -5 -30 0 -8 5
-21 5 -30 0 -9 -5 -22 -5 -30 0 -8 5 -21 5 -30 0 -9 -5 -22 -5 -30 0 -8 5 -21
5 -30 0 -9 -5 -22 -5 -30 0 -8 5 -21 5 -30 0 -9 -5 -22 -5 -30 0 -8 5 -21 5
-30 0 -9 -5 -22 -5 -30 0 -8 5 -21 5 -30 0 -9 -5 -22 -5 -30 0 -8 5 -21 5 -30
0 -9 -5 -22 -5 -30 0 -8 5 -21 5 -30 0 -9 -5 -22 -5 -29 0 -8 4 -26 4 -42 0
-15 -5 -29 -5 -31 0 -2 4 -23 2 -47 -6z"/>
<path d="M8047 5764 c-2 -3 -34 -7 -69 -9 -38 -2 -84 -13 -110 -25 -52 -24
-128 -88 -128 -107 0 -7 -4 -13 -9 -13 -11 0 -40 -77 -47 -126 -7 -43 -6 -39
-5 -109 4 -147 1 -297 -5 -307 -3 -4 -1 -8 3 -8 5 0 6 -25 3 -56 -3 -30 -3
-57 0 -59 3 -2 3 -31 0 -64 -3 -34 -3 -61 0 -61 4 0 4 -22 0 -50 -3 -27 -4
-54 0 -60 3 -5 3 -35 0 -66 -3 -30 -4 -57 0 -59 3 -2 3 -27 0 -57 -3 -29 -3
-81 0 -115 3 -35 3 -63 0 -63 -3 0 -4 -28 -2 -62 1 -35 3 -88 4 -118 3 -138
66 -241 183 -300 l50 -25 704 -3 c688 -3 705 -2 765 18 114 38 200 146 212
265 3 33 7 66 9 73 3 6 0 12 -5 12 -5 0 -5 13 0 30 5 17 6 30 2 30 -4 0 -7 16
-7 35 0 19 3 35 7 35 4 0 3 14 -2 30 -5 17 -5 30 0 30 5 0 5 13 0 29 -4 16 -6
32 -3 34 7 8 9 167 1 167 -4 0 -3 14 2 30 5 17 5 30 0 30 -5 0 -5 13 0 30 5
17 5 30 0 30 -5 0 -5 13 0 30 5 17 5 30 0 30 -5 0 -5 13 0 30 5 17 5 30 0 30
-4 0 -5 15 -1 33 4 17 4 47 0 65 -3 17 -3 32 2 32 4 0 4 13 -1 29 -4 15 -4 34
0 42 5 7 5 20 0 29 -5 9 -5 22 0 30 5 8 5 21 0 30 -5 9 -5 22 0 30 5 8 5 21 0
30 -5 9 -5 22 0 30 5 8 5 21 0 30 -5 9 -5 22 0 30 5 8 5 21 0 30 -5 9 -5 22 0
30 5 8 6 18 4 22 -3 4 -7 37 -9 72 -9 158 -130 279 -291 291 -37 3 -70 8 -75
11 -5 3 -9 1 -9 -5 0 -6 -11 -6 -30 -1 -17 5 -30 5 -30 0 0 -5 -13 -5 -30 0
-17 5 -30 5 -30 0 0 -5 -13 -5 -30 0 -17 5 -30 5 -30 0 0 -5 -6 -7 -14 -4 -20
8 -106 10 -106 3 0 -4 -15 -3 -34 1 -19 4 -39 4 -46 0 -7 -4 -27 -4 -46 0 -19
4 -36 4 -39 0 -3 -5 -18 -5 -34 0 -15 4 -34 4 -41 0 -6 -4 -27 -4 -46 0 -19 4
-34 4 -34 0 0 -4 -15 -4 -34 0 -19 4 -39 4 -46 0 -7 -4 -27 -4 -46 0 -19 4
-36 4 -39 0 -3 -5 -18 -5 -34 0 -15 4 -34 4 -41 0 -6 -4 -27 -4 -46 0 -19 4
-34 4 -34 0 0 -4 -15 -4 -34 0 -19 4 -39 4 -46 0 -7 -4 -27 -4 -46 0 -19 4
-36 4 -39 0 -3 -5 -18 -5 -34 0 -16 4 -32 6 -34 4z m240 -164 c82 1 155 1 163
1 8 0 80 0 160 0 80 0 150 0 155 0 52 0 330 0 365 0 189 1 227 -7 269 -58 27
-33 50 -108 42 -137 -2 -7 -2 -150 0 -266 0 -8 0 -35 0 -60 -1 -25 -1 -70 -1
-100 1 -30 1 -111 1 -180 0 -69 0 -132 0 -140 0 -8 0 -24 -1 -35 -1 -11 -1
-56 0 -100 0 -44 0 -138 0 -208 -1 -71 0 -131 3 -133 10 -11 -16 -91 -39 -121
-30 -39 -86 -65 -131 -61 -18 1 -35 0 -38 -4 -4 -3 -19 -2 -35 2 -16 4 -31 6
-34 3 -7 -7 -101 -7 -113 0 -5 3 -15 2 -23 -3 -7 -4 -24 -4 -36 0 -14 6 -26 5
-29 0 -3 -5 -18 -5 -35 0 -18 5 -32 5 -36 -1 -3 -5 -10 -7 -15 -3 -13 7 -117
9 -125 2 -3 -4 -18 -2 -34 2 -16 4 -31 6 -34 3 -7 -8 -105 -7 -113 0 -3 4 -13
2 -22 -3 -10 -5 -23 -5 -31 0 -8 5 -21 5 -30 0 -9 -5 -22 -5 -30 0 -7 4 -23 5
-34 1 -12 -4 -32 -5 -46 -1 -14 3 -38 3 -55 0 -16 -3 -41 -3 -55 0 -14 4 -37
3 -52 -1 -15 -4 -30 -4 -33 1 -3 5 -15 6 -29 0 -12 -4 -29 -4 -36 0 -8 5 -21
5 -31 0 -9 -5 -19 -7 -21 -4 -3 3 -33 6 -67 8 -66 3 -98 19 -135 69 -18 24
-28 93 -26 175 0 12 0 29 0 37 0 8 0 22 0 30 0 8 0 22 0 30 0 8 0 22 0 30 0 8
0 22 0 30 0 8 0 38 -1 65 -1 28 1 53 4 56 3 3 1 19 -3 35 -5 16 -6 29 -2 29 8
0 7 119 -1 127 -3 3 -2 15 3 27 4 13 4 29 0 36 -5 8 -5 21 0 30 5 9 5 22 0 30
-5 8 -5 21 0 31 5 9 7 19 3 22 -7 8 -8 106 0 113 3 3 1 19 -3 35 -5 16 -6 29
-2 29 8 0 6 119 -2 127 -2 3 -1 15 4 27 4 13 4 29 0 36 -5 8 -4 22 1 31 6 11
5 20 -1 24 -5 3 -6 15 0 29 4 12 5 28 1 35 -14 22 9 124 36 159 34 45 70 59
161 61 42 1 78 4 81 6 2 3 8 2 12 -1 5 -3 75 -4 156 -4z"/>
<path d="M10600 5762 c0 -4 -24 -7 -53 -8 -91 -1 -148 -25 -212 -89 -57 -58
-87 -124 -88 -202 -1 -35 -4 -63 -7 -63 -3 0 -5 -34 -5 -75 0 -41 3 -75 7 -75
4 0 3 -13 -2 -30 -5 -17 -5 -32 0 -35 5 -3 5 -16 1 -28 -5 -12 -5 -34 0 -49 4
-16 5 -28 1 -28 -4 0 -7 -34 -7 -75 0 -41 3 -75 7 -75 4 0 3 -13 -2 -30 -5
-17 -5 -32 0 -35 5 -3 5 -16 1 -28 -5 -12 -5 -34 0 -49 4 -16 5 -28 1 -28 -4
0 -7 -34 -7 -75 0 -41 3 -75 7 -75 4 0 3 -13 -2 -30 -5 -18 -5 -32 1 -36 5 -3
7 -10 3 -15 -8 -13 -9 -113 -1 -126 3 -5 2 -15 -3 -23 -5 -8 -5 -21 0 -30 5
-9 5 -22 0 -30 -4 -7 -4 -24 0 -36 6 -14 5 -26 0 -29 -5 -3 -6 -15 0 -29 4
-12 4 -29 0 -36 -5 -8 -6 -18 -3 -24 4 -5 7 -23 8 -40 5 -102 77 -204 180
-256 l50 -25 704 -3 c688 -3 705 -2 765 18 102 34 193 138 211 240 8 45 8 216
1 229 -4 5 -2 12 3 16 7 3 7 15 1 30 -6 15 -6 27 1 30 5 4 7 11 3 16 -5 9 -8
82 -4 102 4 20 2 208 -3 213 -3 3 -2 18 2 32 5 15 5 36 1 47 -4 11 -5 24 -2
29 4 8 6 196 2 214 -2 4 -1 11 0 17 4 24 3 112 -3 121 -3 6 -2 16 3 24 4 7 4
24 0 36 -6 14 -5 26 0 29 6 3 6 15 0 30 -6 15 -6 27 0 30 6 3 6 15 0 30 -6 15
-6 27 1 30 5 4 7 11 4 16 -4 5 -7 26 -9 46 -6 80 -33 139 -89 196 -52 52 -119
85 -189 93 -29 3 -59 7 -65 9 -7 3 -13 0 -13 -4 0 -5 -15 -5 -34 -1 -19 4 -39
4 -46 0 -7 -4 -27 -4 -46 0 -19 4 -36 4 -39 0 -3 -5 -18 -5 -34 0 -16 4 -32 6
-35 2 -8 -8 -102 -5 -116 3 -5 3 -10 2 -10 -4 0 -6 -11 -6 -30 -1 -17 5 -30 5
-30 0 0 -5 -13 -5 -30 0 -17 5 -30 5 -30 0 0 -5 -13 -5 -30 0 -17 5 -30 5 -30
0 0 -5 -13 -5 -30 0 -17 5 -30 5 -30 0 0 -5 -13 -5 -30 0 -17 5 -30 5 -30 0 0
-5 -13 -5 -30 0 -17 5 -30 5 -30 0 0 -5 -13 -5 -30 0 -17 5 -30 5 -30 0 0 -5
-13 -5 -30 0 -17 5 -30 5 -30 0 0 -5 -13 -5 -30 0 -17 5 -30 5 -30 0 0 -5 -13
-5 -30 0 -17 5 -30 5 -30 0 0 -5 -13 -5 -30 0 -17 5 -30 5 -30 0 0 -5 -13 -5
-30 0 -17 5 -30 5 -30 0 0 -5 -13 -5 -30 0 -17 5 -30 5 -30 0 0 -5 -13 -5 -30
0 -16 5 -30 6 -30 2z m120 -159 c0 4 4 5 10 2 8 -5 118 -6 320 -4 25 0 65 0
90 0 25 -1 52 -1 60 0 8 0 62 0 120 -1 58 0 182 0 275 0 257 0 301 -3 332 -26
51 -39 67 -70 69 -140 2 -36 5 -68 7 -71 3 -2 1 -18 -3 -34 -5 -16 -5 -31 0
-34 5 -3 5 -16 0 -30 -6 -15 -6 -27 0 -30 6 -3 6 -15 0 -30 -5 -13 -6 -26 -2
-29 5 -3 5 -30 2 -61 -3 -31 -3 -58 2 -61 4 -3 3 -15 -2 -28 -5 -13 -6 -27 -2
-30 3 -4 5 -32 3 -64 -1 -31 -2 -64 -2 -72 2 -48 0 -103 -4 -110 -3 -5 -1 -11
4 -15 7 -3 7 -15 1 -29 -5 -13 -6 -27 -3 -30 4 -4 6 -23 5 -44 -2 -81 -2 -109
0 -150 2 -23 0 -42 -3 -42 -4 0 -3 -16 1 -35 4 -19 5 -35 1 -35 -3 0 -5 -19
-4 -42 5 -84 5 -127 -2 -138 -3 -5 -2 -10 3 -10 17 0 -7 -82 -34 -117 -30 -39
-86 -65 -131 -61 -18 1 -35 0 -38 -4 -4 -3 -19 -2 -35 2 -16 4 -31 6 -34 3 -7
-7 -101 -7 -113 0 -5 3 -15 2 -23 -3 -7 -4 -24 -4 -36 0 -14 6 -26 5 -29 0 -3
-5 -18 -5 -35 0 -18 5 -32 5 -36 -1 -3 -5 -10 -7 -15 -3 -13 7 -117 9 -125 2
-3 -4 -18 -2 -34 2 -16 4 -31 6 -34 3 -7 -8 -105 -7 -113 0 -3 4 -13 2 -22 -3
-10 -5 -23 -5 -31 0 -8 5 -21 5 -30 0 -9 -5 -22 -5 -30 0 -7 4 -23 5 -34 1
-12 -4 -32 -5 -46 -1 -14 3 -38 3 -55 0 -16 -3 -41 -3 -55 0 -14 4 -37 3 -52
-1 -15 -4 -30 -4 -33 1 -3 5 -15 6 -29 0 -12 -4 -29 -4 -36 0 -8 5 -21 5 -31
0 -9 -5 -19 -7 -21 -4 -3 3 -33 6 -67 8 -103 5 -153 57 -157 162 -2 36 -5 68
-8 71 -2 3 -1 15 4 27 4 13 5 29 0 36 -5 7 -4 24 0 36 6 14 5 26 0 29 -6 3 -6
15 0 30 5 13 6 26 2 29 -5 3 -5 30 -2 61 3 31 3 58 -2 61 -4 3 -3 15 2 28 5
13 6 27 2 30 -3 4 -5 32 -3 64 1 31 2 64 2 72 -2 48 0 103 4 110 3 5 1 11 -4
15 -7 3 -7 15 -1 29 5 13 6 27 2 30 -3 4 -5 32 -3 64 1 31 2 64 2 72 -2 48 0
103 4 110 3 5 1 11 -4 15 -7 3 -7 15 -1 29 5 13 6 27 3 30 -4 4 -6 23 -5 44 1
52 2 104 1 122 -2 28 10 89 21 109 32 61 126 92 242 81 32 -3 58 -2 58 3z"/>
<path d="M12921 5754 c-43 -12 -84 -44 -102 -76 -15 -28 -27 -105 -18 -119 4
-7 4 -20 -1 -29 -5 -9 -5 -22 0 -30 5 -8 5 -21 0 -30 -5 -9 -5 -22 0 -30 5 -8
5 -21 0 -30 -5 -9 -5 -22 0 -30 5 -8 5 -21 0 -30 -5 -9 -5 -22 0 -30 5 -8 5
-21 0 -30 -5 -9 -5 -22 0 -30 5 -8 5 -21 0 -30 -5 -9 -5 -22 0 -30 5 -8 5 -21
0 -30 -5 -9 -5 -22 0 -30 5 -8 5 -21 0 -30 -5 -9 -5 -22 0 -30 5 -8 5 -21 0
-30 -5 -9 -5 -22 0 -30 5 -8 5 -21 0 -30 -5 -9 -5 -22 0 -30 5 -8 5 -21 0 -30
-5 -9 -5 -22 0 -30 5 -8 5 -21 0 -30 -5 -9 -5 -22 0 -30 5 -8 5 -21 0 -30 -5
-9 -5 -22 0 -30 5 -8 5 -21 0 -30 -5 -9 -5 -22 0 -30 5 -8 5 -21 0 -30 -5 -9
-5 -22 0 -30 5 -8 5 -21 0 -30 -5 -9 -5 -22 0 -30 5 -8 5 -21 0 -30 -5 -9 -5
-22 -1 -28 4 -7 5 -35 1 -62 -4 -27 -3 -55 1 -62 4 -6 4 -19 -1 -28 -5 -9 -5
-22 0 -30 5 -8 5 -21 0 -30 -5 -9 -5 -22 0 -30 5 -8 5 -21 0 -30 -5 -9 -5 -22
0 -30 5 -8 5 -21 0 -30 -5 -9 -5 -22 0 -30 4 -7 4 -24 0 -36 -6 -14 -5 -26 1
-29 5 -4 7 -11 3 -16 -6 -10 -6 -72 0 -128 4 -40 31 -78 76 -108 l33 -23 851
3 851 2 35 24 c74 50 70 -8 67 941 -2 840 -2 849 -23 876 -33 45 -66 64 -117
69 -27 3 -53 7 -57 10 -5 3 -11 1 -14 -4 -3 -5 -21 -6 -38 -2 -18 4 -48 4 -65
0 -18 -3 -33 -3 -33 2 0 4 -13 4 -30 -1 -17 -5 -30 -5 -30 0 0 5 -13 5 -30 0
-17 -5 -30 -5 -30 0 0 5 -13 5 -30 0 -17 -5 -30 -5 -30 0 0 5 -13 5 -30 0 -17
-5 -30 -5 -30 0 0 5 -13 5 -30 0 -17 -5 -30 -5 -30 0 0 5 -13 5 -29 0 -15 -4
-34 -4 -42 0 -7 5 -20 5 -29 0 -9 -5 -22 -5 -30 0 -8 5 -21 5 -30 0 -9 -5 -22
-5 -30 0 -8 5 -21 5 -30 0 -9 -5 -22 -5 -30 0 -8 5 -21 5 -30 0 -9 -5 -22 -5
-30 0 -8 5 -21 5 -30 0 -9 -5 -22 -5 -30 0 -8 5 -21 5 -30 0 -9 -5 -22 -5 -30
0 -8 5 -21 5 -30 0 -9 -5 -22 -5 -30 0 -8 5 -21 5 -30 0 -9 -5 -22 -5 -30 0
-8 5 -21 5 -30 0 -9 -5 -22 -5 -30 0 -8 5 -21 5 -30 0 -9 -5 -22 -5 -30 0 -8
5 -21 5 -30 0 -9 -5 -22 -5 -30 0 -8 5 -21 5 -30 0 -9 -5 -22 -5 -30 0 -8 5
-21 5 -30 0 -9 -5 -22 -5 -30 0 -8 5 -21 5 -30 0 -9 -5 -22 -5 -30 0 -8 5 -21
5 -30 0 -9 -5 -22 -5 -30 0 -8 5 -21 5 -30 0 -9 -5 -22 -5 -29 0 -8 4 -26 4
-42 0 -15 -5 -29 -5 -31 0 -2 4 -23 2 -47 -6z"/>
</g>
</svg>
